/* XPM */
static const char * lightbulb_xpm[] = {
"22 22 137 2",
"  	c None",
". 	c #BBBDB6",
"+ 	c #BABDB6",
"@ 	c #B9BDB6",
"# 	c #B9BCB6",
"$ 	c #BABCB6",
"% 	c #BDC1B9",
"& 	c #D3D5D0",
"* 	c #DEDFDC",
"= 	c #E7E8E5",
"- 	c #ECECEB",
"; 	c #E4E6E2",
"> 	c #DADBD7",
", 	c #CDCFCA",
"' 	c #BCBFB9",
") 	c #BABEB7",
"! 	c #CCCFC9",
"~ 	c #EFF0EF",
"{ 	c #E2E4E1",
"] 	c #D2D5D0",
"^ 	c #CACBC7",
"/ 	c #C0C2BE",
"( 	c #C9CBC7",
"_ 	c #D4D5D0",
": 	c #DEDEDB",
"< 	c #E0E2DF",
"[ 	c #C5C8C2",
"} 	c #BABDB7",
"| 	c #C4C7C0",
"1 	c #F3F3F2",
"2 	c #CBCDC7",
"3 	c #BEC1BB",
"4 	c #F6F6F6",
"5 	c #FCFDFC",
"6 	c #F9F9F9",
"7 	c #F0F2F0",
"8 	c #E1E1DF",
"9 	c #BFC2BB",
"0 	c #E1E2DF",
"a 	c #D7D9D5",
"b 	c #E5E6E4",
"c 	c #F8F8F8",
"d 	c #FAFAFA",
"e 	c #FEFEFE",
"f 	c #F5F7F5",
"g 	c #D6D6D2",
"h 	c #D2D3CE",
"i 	c #BABEB6",
"j 	c #B9BDB5",
"k 	c #EAEBE9",
"l 	c #C4C6C2",
"m 	c #CAC79B",
"n 	c #F6EDA5",
"o 	c #F8F3D0",
"p 	c #FFFFFD",
"q 	c #FFFFFF",
"r 	c #FEF9D2",
"s 	c #FDF3A3",
"t 	c #DADCD7",
"u 	c #E6E7E4",
"v 	c #C3C7C0",
"w 	c #EBDF71",
"x 	c #FFFFFC",
"y 	c #FEF9CD",
"z 	c #FDF295",
"A 	c #FDF29B",
"B 	c #FCF08A",
"C 	c #FEF7BF",
"D 	c #FCE95E",
"E 	c #DADDD9",
"F 	c #BABDB5",
"G 	c #D9DBD7",
"H 	c #CFD0CC",
"I 	c #D0CD92",
"J 	c #F7EA81",
"K 	c #FEFBDB",
"L 	c #FFFBE2",
"M 	c #FFFEF4",
"N 	c #FFFEF5",
"O 	c #FBEE88",
"P 	c #CFD2CD",
"Q 	c #C6C9C3",
"R 	c #BBBEB7",
"S 	c #BAB055",
"T 	c #FDEE7B",
"U 	c #FEF4A9",
"V 	c #FDF297",
"W 	c #DFD15F",
"X 	c #C1C4BF",
"Y 	c #D3D5D1",
"Z 	c #D1D3CE",
"` 	c #D9DAD6",
" .	c #BFC3BB",
"..	c #9B9C97",
"+.	c #999B96",
"@.	c #BDC0BA",
"#.	c #C8CAC4",
"$.	c #C9CBC5",
"%.	c #FCFCFB",
"&.	c #C6C9C2",
"*.	c #C6C8C3",
"=.	c #BBBEB6",
"-.	c #E1E3DE",
";.	c #BCBFB8",
">.	c #BBBDB7",
",.	c #BFC2BD",
"'.	c #CDCFCB",
").	c #B7BAB4",
"!.	c #B8BBB5",
"~.	c #A3A6A0",
"{.	c #E5E6E3",
"].	c #BFC2BC",
"^.	c #B5B8B1",
"/.	c #A2A59E",
"(.	c #93948E",
"_.	c #979995",
":.	c #EBEBEB",
"<.	c #F1F1F0",
"[.	c #D8D9D6",
"}.	c #C5C7C1",
"|.	c #A8A9A5",
"1.	c #90928D",
"2.	c #91928E",
"3.	c #8A8C87",
"4.	c #DCDEDA",
"5.	c #B1B4AD",
"6.	c #8C8F89",
"7.	c #969894",
"8.	c #8F918C",
"9.	c #8B8D88",
"0.	c #888A86",
"a.	c #898B86",
"b.	c #888A85",
"c.	c #868A84",
"d.	c #212426",
"e.	c #2E3335",
"f.	c #2E3436",
"              . + @ # $ $ @                 ",
"            % & * = - ; > , '               ",
"        ) ! ~ { ] ^ / ( _ : < [ }           ",
"        | 1 2 3 = 4 5 6 7   ( 8 9           ",
"      + 0 a . b c d e e e f   g h i         ",
"      j k l m n o p q q r s     t .         ",
"      } u v w x y z A B C x D   E #         ",
"      F G H I J K q L M N O     P $         ",
"        Q < R   S T U V W       X           ",
"        F Y Z                   +           ",
"          3 `  .  ..+ +.      @.            ",
"          . #.$.  + %.+     &.F             ",
"            3 *.=.+ -.+   v ;.              ",
"            >.,.'.# ).).).!.).              ",
"            ~.< 6 {.Z ].+ ^./.              ",
"            (._.:.<.[.}.|.1.2.              ",
"            3.4.6 {.Z ].+ 5.3.              ",
"            6.7.:.<.[.}.|.8.9.              ",
"            3.4.6 {.Z ].+ 5.3.              ",
"            0.a.b.b.b.b.b.b.c.              ",
"                d.e.f.e.d.                  ",
"                                            "};
