/* XPM */
static const char * noexit_xpm[] = {
"22 22 168 2",
"  	c None",
". 	c #EA2121",
"+ 	c #E82121",
"@ 	c #E61F1F",
"# 	c #E51C1C",
"$ 	c #E21A1A",
"% 	c #E21717",
"& 	c #EB2525",
"* 	c #EC3433",
"= 	c #E94543",
"- 	c #E85652",
"; 	c #EA6964",
"> 	c #E86A65",
", 	c #E85653",
"' 	c #E54441",
") 	c #E12A29",
"! 	c #DC1414",
"~ 	c #EB2727",
"{ 	c #EB4745",
"] 	c #E95652",
"^ 	c #E64341",
"/ 	c #E63534",
"( 	c #E52625",
"_ 	c #E52525",
": 	c #E73735",
"< 	c #E74542",
"[ 	c #E85B57",
"} 	c #E54542",
"| 	c #DD1717",
"1 	c #E82B2B",
"2 	c #EA4E4B",
"3 	c #E7403E",
"4 	c #E62120",
"5 	c #E61E1E",
"6 	c #E51D1D",
"7 	c #E41F1F",
"8 	c #E6504D",
"9 	c #DE1E1E",
"0 	c #E52020",
"a 	c #E84745",
"b 	c #E72F2E",
"c 	c #E72020",
"d 	c #E82020",
"e 	c #E71F1F",
"f 	c #E52D2C",
"g 	c #E64B48",
"h 	c #D81010",
"i 	c #E21919",
"j 	c #E73634",
"k 	c #E83837",
"l 	c #E92222",
"m 	c #E92323",
"n 	c #EA2323",
"o 	c #EA2424",
"p 	c #E73A38",
"q 	c #E13331",
"r 	c #D40A0A",
"s 	c #E21F1F",
"t 	c #E8403E",
"u 	c #E72222",
"v 	c #EB2424",
"w 	c #EC2525",
"x 	c #EC2626",
"y 	c #E51E1E",
"z 	c #E41E1E",
"A 	c #E64340",
"B 	c #D41515",
"C 	c #DC1313",
"D 	c #E22827",
"E 	c #E83231",
"F 	c #ED2727",
"G 	c #EE2828",
"H 	c #E41D1D",
"I 	c #E53231",
"J 	c #DC2322",
"K 	c #CF0404",
"L 	c #DB1212",
"M 	c #E42F2D",
"N 	c #E62A29",
"O 	c #FFFCFC",
"P 	c #FFFFFF",
"Q 	c #FFFBFB",
"R 	c #E42928",
"S 	c #E02F2D",
"T 	c #CF0505",
"U 	c #D91010",
"V 	c #E53533",
"W 	c #E62222",
"X 	c #E41C1C",
"Y 	c #E32020",
"Z 	c #E23735",
"` 	c #CD0202",
" .	c #D70D0D",
"..	c #E53432",
"+.	c #E31B1B",
"@.	c #E31F1E",
"#.	c #E13634",
"$.	c #CD0101",
"%.	c #E02827",
"&.	c #E52726",
"*.	c #E22524",
"=.	c #DC2826",
"-.	c #CE0101",
";.	c #D30808",
">.	c #DB1C1B",
",.	c #E32A29",
"'.	c #E11818",
").	c #E22B2A",
"!.	c #D81B1A",
"~.	c #CD0000",
"{.	c #D30F0F",
"].	c #E33130",
"^.	c #E01A1A",
"/.	c #E11919",
"(.	c #E01818",
"_.	c #DF1919",
":.	c #D00C0A",
"<.	c #DB2120",
"[.	c #E01717",
"}.	c #DF1616",
"|.	c #DE1616",
"1.	c #E12C2B",
"2.	c #DA2322",
"3.	c #CD0303",
"4.	c #DF2F2D",
"5.	c #E0201F",
"6.	c #DE1515",
"7.	c #DD1414",
"8.	c #DF2120",
"9.	c #DE3331",
"0.	c #D10A0A",
"a.	c #DE2F2E",
"b.	c #DF2B29",
"c.	c #DD1616",
"d.	c #DC1515",
"e.	c #DE2B2A",
"f.	c #DD3432",
"g.	c #CF0D0B",
"h.	c #C30404",
"i.	c #B70707",
"j.	c #CB0303",
"k.	c #D92322",
"l.	c #DF3533",
"m.	c #DD2827",
"n.	c #DD2120",
"o.	c #DC1818",
"p.	c #DC1918",
"q.	c #DD2927",
"r.	c #DF3735",
"s.	c #D82524",
"t.	c #CB0404",
"u.	c #B00909",
"v.	c #C50303",
"w.	c #CD0F0D",
"x.	c #D51C1B",
"y.	c #D92A28",
"z.	c #DD3634",
"A.	c #DD3734",
"B.	c #DA2B29",
"C.	c #D51D1C",
"D.	c #CC0E0E",
"E.	c #8D1616",
"F.	c #A70D0D",
"G.	c #BB0707",
"H.	c #C90101",
"I.	c #BA0707",
"J.	c #A30E0E",
"K.	c #871818",
"                                            ",
"                . + @ # $ %                 ",
"            & * = - ; > , ' ) !             ",
"          ~ { ] ^ / ( _ : < [ } |           ",
"        1 2 3 4 @ @ @ @ 5 6 7 ^ 8 9         ",
"      0 a b c d + + + + c e 5 6 f g h       ",
"    i j k d l m n o n n l + c 5 6 p q r     ",
"    s t u l n v w x x & n l + e y z A B     ",
"  C D E + l o w F G F x v n + c 5 H I J K   ",
"  L M N d O P P P P P P P P P P Q H R S T   ",
"  U V W c P P P P P P P P P P P P X Y Z `   ",
"   ...4 5 Q P P P P P P P P P P Q +.@.#.$.  ",
"  r %.&.H y 5 @ e c c e @ y 6 X +.$ *.=.-.  ",
"  ;.>.,.+.X X 6 6 6 6 6 H X +.$ i '.).!.~.  ",
"    {.].^.$ $ +.+.+.+.+.$ $ /.'.(._.#.:.    ",
"    K <.) [.(.'./././.'.'.(.[.}.|.1.2.$.    ",
"      3.4.5.|.}.}.}.}.}.}.6.6.7.8.9.3.      ",
"        0.a.b.c.7.7.7.7.7.C d.e.f.g.h.      ",
"        i.j.k.l.m.n.o.p.n.q.r.s.t.u.        ",
"            v.w.x.y.z.A.B.C.D.h.            ",
"              E.F.G.H.H.I.J.K.              ",
"                                            "};
